<?xml version="1.0" encoding="utf-8"?>
<!-- Generator: Adobe Illustrator 27.1.1, SVG Export Plug-In . SVG Version: 6.00 Build 0)  -->
<svg version="1.1" id="Layer_1" xmlns="http://www.w3.org/2000/svg" xmlns:xlink="http://www.w3.org/1999/xlink" x="0px" y="0px"
	 viewBox="0 0 3285 1080" style="enable-background:new 0 0 3285 1080;" xml:space="preserve">
<style type="text/css">
	.st0{fill:#3B237B;}
	.st1{fill:#F26522;}
	.st2{fill:#FFFFFF;}
</style>
<rect y="0" transform="matrix(-1 -1.224647e-16 1.224647e-16 -1 3285 1080)" class="st2" width="3285" height="1080"/>
<g>
	<g>
		<path class="st0" d="M1396.9,383.2c-7.6-8.4-18-17-31-25.8c-12.8-7.9-24.4-14.4-34.6-19.3c-11.2-5.2-24.7-10.9-40.1-16.9l0,0
			c-15.3-5.8-26.5-12.3-33.3-19.3c-6.6-6.8-9.9-15.1-9.9-25.2c0-8.4,4-15.2,12.2-20.6c8.5-5.6,18.5-8.5,29.9-8.5
			c23.5,0,46.1,9.6,67.2,28.5l2.4,2.1l42.9-57.5l-1.9-1.8c-32.3-29.6-69.1-44.6-109.4-44.6c-33.5,0-62.4,9.7-85.7,28.8
			c-23.5,19.6-35.4,44.4-35.4,73.7c0,29.5,9.8,54.4,29.3,73.8c19.1,19.1,50.8,37.2,94.1,53.8c35.1,13.5,52.1,34.2,52.1,63.1
			c0,11.6-5.4,21.6-16.4,30.6c-11,9.1-25,13.7-41.4,13.7c-15.9,0-32.3-4.7-48.6-14c-16.5-9.3-31.5-22.8-44.7-40l-2.2-2.9l-45.3,55.1
			l1.2,1.8c7.4,11.3,21.9,25.1,44.5,42.3c26.6,20.6,58.7,31,95.1,31c39.2,0,72-12,97.6-35.7c25.2-23.7,38-52.4,38-85.4
			c0-30.9-8.9-58-26.5-80.5L1396.9,383.2z"/>
		<path class="st0" d="M1425.2,580.5h84.1l22.5-54h155.8l22.5,54h84.1l-184.5-415.1L1425.2,580.5z M1609.6,342.1l48.5,115.5h-96.9
			L1609.6,342.1z"/>
		<path class="st0" d="M2044.4,388c12-21.2,18.1-44.4,18.1-69.2c0-39.6-13.3-73.4-39.7-100.5c-27.1-26.3-66.5-39.6-117.3-39.6h-82.8
			v401.8h77.8V459h13.9c6,0,9.3-0.1,11.2-0.3l60.1,121.8h87.7l-76.9-143C2016.7,425,2032.8,408.4,2044.4,388z M1984.6,318.8
			c0,18.6-6.4,34.6-19.1,47.4c-12.7,12.9-28.5,19.4-47.1,19.4h-17.9V252h17.9c19.4,0,35.4,6.2,47.7,18.3
			C1978.4,282.4,1984.6,298.7,1984.6,318.8z"/>
		<path class="st0" d="M2227.6,445.9c0,21.3-4.5,37.8-13.4,49.1c-8.9,11.2-20.8,16.6-36.5,16.6c-12.3,0-22.7-3.5-30.7-10.5l-2.4-2.1
			l-44,58.7l2.1,1.8c8.5,7.3,20.1,13.5,34.5,18.3c14.3,4.8,28.9,7.2,43.4,7.2c82.9,0,125-49.4,125-146.9V178.7h-77.8V445.9z"/>
		<path class="st0" d="M2329.5,580.5h84.1l22.5-54h155.8l22.5,54h84.1L2514,165.4L2329.5,580.5z M2514,342.1l48.5,115.5h-96.9
			L2514,342.1z"/>
		<polygon class="st0" points="2934,178.7 2934,394.5 2727,165 2727,580.5 2804.8,580.5 2804.8,364.7 3011.8,594.1 3011.8,178.7 		
			"/>
	</g>
	<g>
		<path class="st0" d="M1476.4,667.7v12.3h-33.7v35.4h24.7v12.3h-24.7v38.7h-13.5v-98.8H1476.4z"/>
		<path class="st0" d="M1589.9,681.3c9.8-9.8,21.7-14.7,35.6-14.7c13.8,0,25.8,4.9,35.8,14.7c9.8,10,14.7,21.9,14.7,35.8
			c0,13.9-4.9,25.8-14.7,35.6c-9.9,9.9-21.8,14.9-35.8,14.9c-13.9,0-25.8-5-35.6-14.9c-9.9-9.8-14.9-21.7-14.9-35.6
			C1575.1,703.2,1580,691.3,1589.9,681.3z M1599.3,744.1c7.2,7.5,15.9,11.2,26.2,11.2c10.3,0,19-3.7,26.2-11.2
			c7.2-7.5,10.8-16.5,10.8-26.9c0-10.6-3.6-19.6-10.8-27.1c-7.1-7.4-15.9-11.1-26.2-11.1c-10.4,0-19.1,3.7-26.2,11.1
			c-7.2,7.5-10.8,16.5-10.8,27.1C1588.5,727.6,1592.1,736.6,1599.3,744.1z"/>
		<path class="st0" d="M1833.1,729.5v-61.7h13.5v59.5c0,12.5-3,22.4-9,29.5c-6.1,7.3-14.3,10.9-24.7,10.9
			c-10.6,0-18.8-3.6-24.8-10.7c-5.9-7.2-8.9-17-8.9-29.7v-59.5h13.5v61.7c0,7.8,1.8,14,5.4,18.7c3.6,4.7,8.5,7.1,14.8,7.1
			c6.2,0,11.1-2.4,14.7-7.1C1831.3,743.5,1833.1,737.2,1833.1,729.5z"/>
		<path class="st0" d="M2024.9,667.7v101l-56.1-66.8v64.5h-13.5v-101l56.1,66.8v-64.5H2024.9z"/>
		<path class="st0" d="M2133.6,667.7h19.2c15.8,0,28.2,4.6,37,13.9c8.9,9.4,13.3,21.3,13.3,35.5c0,14.2-4.5,26-13.5,35.4
			c-9,9.4-21.3,14-36.9,14h-19.2V667.7z M2147.1,754.2h7.9c9.9,0,18.2-3.6,24.8-10.8c6.6-7.2,10-15.9,10-26.2c0-10.3-3.3-19-10-26.2
			c-6.6-7.2-14.9-10.8-24.8-10.8h-7.9V754.2z"/>
		<path class="st0" d="M2381.5,766.5h-14.6l-6.2-14h-48.3l-6.2,14h-14.6l44.9-101L2381.5,766.5z M2336.6,696.9l-18.8,43.2h37.6
			L2336.6,696.9z"/>
		<path class="st0" d="M2463.3,680.1v-12.3h53.9v12.3H2497v86.4h-13.5v-86.4H2463.3z"/>
		<path class="st0" d="M2634.9,667.7v98.8h-13.5v-98.8H2634.9z"/>
		<path class="st0" d="M2752.9,681.3c9.8-9.8,21.7-14.7,35.6-14.7c13.8,0,25.8,4.9,35.8,14.7c9.8,10,14.7,21.9,14.7,35.8
			c0,13.9-4.9,25.8-14.7,35.6c-9.9,9.9-21.8,14.9-35.8,14.9c-13.9,0-25.8-5-35.6-14.9c-9.9-9.8-14.9-21.7-14.9-35.6
			C2738.1,703.2,2743,691.3,2752.9,681.3z M2762.3,744.1c7.2,7.5,15.9,11.2,26.2,11.2c10.3,0,19-3.7,26.2-11.2
			c7.2-7.5,10.8-16.5,10.8-26.9c0-10.6-3.6-19.6-10.8-27.1c-7.1-7.4-15.9-11.1-26.2-11.1c-10.4,0-19.1,3.7-26.2,11.1
			c-7.2,7.5-10.8,16.5-10.8,27.1C2751.5,727.6,2755.1,736.6,2762.3,744.1z"/>
		<path class="st0" d="M3011.8,667.7v101l-56.1-66.8v64.5h-13.5v-101l56.1,66.8v-64.5H3011.8z"/>
	</g>
	<path class="st1" d="M1262.6,768.2c-23.5-47.7-87.5-122.1-146.5-88.3c-27.2,17.3-42,47.8-62,72.9c-25.2,33.9-64,57.5-101.8,71.4
		c-143.7,52.9-404.5-160.1-513.1-327.4c27.2,42,78-17.5,83.3-66.8c31.2,33.7,78.5,91,128.9,59.4c50,82.8,194,122.5,269,55.4v27.6
		l77,62.7V329c0.6-36.8,13.7-65.6,52.6-73.3l-70.6-77H273.2l71,77h103c0.1,33.8-0.9,66.1,0,99.9c0.7,24.4-3,42.8-10.9,54.5
		c-23.6,36.6-57,8.6-75.9-16.2c-11.4-13.1-37.6-43.9-45.1-11.3c-4.1,30,46.6,78.9,66.1,111.2c70.6,95.3,153.9,191.1,243.1,270.5
		c113.5,104,278.6,200,426.9,122.1c35.7-18.8,68-48.5,96.6-89.1c23.7-39.8,82.6-77.9,115.3-27.4v-0.7
		C1263.3,769.4,1263,769,1262.6,768.2z M704.6,443.6c21.5-89.6,133.3-126.2,211.5-88.7C896.9,523.8,669.1,573.2,704.6,443.6z
		 M522.3,255.7h397.9v92.1c-63.4-60.6-150.7-99.1-232.2-48.2c-27.5,16.3-44.4,44-56.2,73.2c-11.9,32.9-64.2,63.7-108.8,41.7
		C522.2,387.4,522.3,284.5,522.3,255.7z"/>
</g>
</svg>