<?xml version="1.0" encoding="utf-8"?>
<!-- Generator: Adobe Illustrator 27.1.1, SVG Export Plug-In . SVG Version: 6.00 Build 0)  -->
<svg version="1.1" id="Layer_1" xmlns="http://www.w3.org/2000/svg" xmlns:xlink="http://www.w3.org/1999/xlink" x="0px" y="0px"
	 viewBox="0 0 1080 1080" style="enable-background:new 0 0 1080 1080;" xml:space="preserve">
<style type="text/css">
	.st0{fill:#3B237B;}
	.st1{fill:#F26522;}
	.st2{fill:#FFFFFF;}
</style>
<rect transform="matrix(-1 -1.224647e-16 1.224647e-16 -1 1080 1080)" class="st1" width="1080" height="1080"/>
<g>
	<path class="st2" d="M429.1,548c-0.7-21.3-0.6-102-0.6-124.5h311.8v72.2c-49.7-47.5-118.1-77.6-181.9-37.7
		c-21.5,12.8-34.8,34.5-44,57.4C505,541.1,464,565.2,429.1,548z"/>
	<path class="st2" d="M940,540c0,146.6-71.8,290.9-173.1,334.3c-157.4,58-322.3-139.4-401.9-261.9c21.3,32.9,59.5-13.7,63.6-52.3
		c24.5,26.4,61.5,71.3,101,46.5c39.2,64.9,152,96,210.8,43.4v21.6l60.4,49.2V480.9c0.5-28.9,10.7-51.4,41.2-57.4l-55.4-60.4H233.4
		l55.6,60.4h80.7c0.1,26.5-0.7,51.8,0,78.3c0.6,19.1-2.4,33.5-8.5,42.7c-18.5,28.7-44.6,6.7-59.5-12.7c-9-10.3-29.4-34.4-35.3-8.8
		c-3.2,23.5,36.5,61.8,51.8,87.1c55.3,74.7,120.6,149.8,190.5,212c43.2,39.5,95.9,77.6,152,99.4c-38.1,12-78.6,18.6-120.7,18.6
		c-220.9,0-400-179.1-400-400s179.1-400,400-400S940,319.1,940,540z"/>
	<path class="st2" d="M737.1,501.2c-61.3-29.4-148.9-0.7-165.8,69.5C543.5,672.2,722.1,633.5,737.1,501.2z"/>
</g>
</svg>